<svg viewBox="0 0 300 340" xmlns="http://www.w3.org/2000/svg" role="img" aria-label="Illustration of a Phosphophyllite snack pouch">
  <defs>
    <linearGradient id="snackBag" x1="0%" y1="0%" x2="100%" y2="100%">
      <stop offset="0%" stop-color="#0F5F55"/><stop offset="100%" stop-color="#0A2E2B"/>
    </linearGradient>
  </defs>
  <ellipse cx="150" cy="308" rx="95" ry="16" fill="#0A2E2B" opacity="0.08"/>
  <path d="M85 90 Q80 60 110 55 L190 55 Q220 60 215 90 L230 260 Q232 290 200 292 L100 292 Q68 290 70 260 Z" fill="url(#snackBag)"/>
  <path d="M105 55 Q100 30 130 26 L170 26 Q200 30 195 55 Z" fill="#123F38"/>
  <polygon points="80,150 220,150 220,235 150,268 80,235" fill="#F3F8F6"/>
  <polygon points="80,150 220,150 150,178" fill="#6FD8C6"/>
  <text x="150" y="195" font-family="'Fraunces', Georgia, serif" font-weight="600" font-size="17" fill="#0A2E2B" text-anchor="middle">Facet Bites</text>
  <text x="150" y="211" font-family="'Manrope', Arial, sans-serif" font-size="9" letter-spacing="2" fill="#17A398" text-anchor="middle">ROASTED &amp; SEASONED</text>
  <polygon points="150,222 158,232 150,242 142,232" fill="#E8C25C"/>
</svg>
