<svg viewBox="0 0 560 120" xmlns="http://www.w3.org/2000/svg" role="img" aria-label="Phosphophyllite">
  <defs>
    <linearGradient id="fdA" x1="0%" y1="0%" x2="100%" y2="100%">
      <stop offset="0%" stop-color="#6FD8C6"/><stop offset="100%" stop-color="#17A398"/>
    </linearGradient>
    <linearGradient id="fdB" x1="0%" y1="0%" x2="100%" y2="100%">
      <stop offset="0%" stop-color="#17A398"/><stop offset="100%" stop-color="#0A2E2B"/>
    </linearGradient>
    <linearGradient id="fdC" x1="0%" y1="100%" x2="100%" y2="0%">
      <stop offset="0%" stop-color="#0A2E2B"/><stop offset="100%" stop-color="#17A398"/>
    </linearGradient>
  </defs>

  <g>
    <polygon points="60,8 84,30 60,44 36,30" fill="url(#fdA)"/>
    <polygon points="60,8 84,30 100,26 74,4" fill="#9FE8DA"/>
    <polygon points="60,8 36,30 20,26 46,4" fill="#CFEFE7"/>
    <polygon points="36,30 60,44 42,72 14,52" fill="url(#fdB)"/>
    <polygon points="84,30 60,44 78,72 106,52" fill="url(#fdC)"/>
    <polygon points="42,72 60,44 78,72 60,112" fill="#0F5F55"/>
    <polygon points="14,52 42,72 60,112 34,96" fill="#0A2E2B"/>
    <polygon points="106,52 78,72 60,112 86,96" fill="#12463F"/>
    <polygon points="66,20 71,26 66,32 61,26" fill="#E8C25C"/>
  </g>

  <text x="130" y="60" font-family="'Fraunces', Georgia, serif" font-weight="600" font-size="40" fill="#F3F8F6" letter-spacing="0.5">Phosphophyllite</text>
  <text x="131" y="86" font-family="'Manrope', Arial, sans-serif" font-weight="600" font-size="14" letter-spacing="4" fill="#6FD8C6">CRYSTAL-CLEAR EVERYDAY GOODS</text>
</svg>
